<svg width="213" height="24" viewBox="0 0 213 24" fill="none" xmlns="http://www.w3.org/2000/svg">
<g clip-path="url(#clip0_325_2)">
<path d="M9.44 0.0319996C11.4453 0.0319996 12.928 0.469333 13.888 1.344C14.8693 2.21866 15.36 3.36 15.36 4.768C15.36 5.96266 15.0293 6.88 14.368 7.52C13.7067 8.13866 12.7573 8.448 11.52 8.448C11.136 8.448 10.8907 8.416 10.784 8.352C10.6773 8.26666 10.624 8.10666 10.624 7.872C10.624 7.65866 10.6027 7.38133 10.56 7.04C10.5387 6.69866 10.464 6.368 10.336 6.048C10.208 5.728 10.0053 5.46133 9.728 5.248C9.45066 5.01333 9.06666 4.896 8.576 4.896C7.89333 4.896 7.28533 5.10933 6.752 5.536C6.21866 5.94133 5.952 6.47466 5.952 7.136C5.952 7.712 6.16533 8.18133 6.592 8.544C7.04 8.90666 7.59466 9.248 8.256 9.568C8.91733 9.86666 9.632 10.176 10.4 10.496C11.1893 10.816 11.9147 11.2427 12.576 11.776C13.2373 12.288 13.7813 12.9387 14.208 13.728C14.656 14.496 14.88 15.4773 14.88 16.672C14.88 17.6107 14.72 18.496 14.4 19.328C14.1013 20.1387 13.6427 20.8533 13.024 21.472C12.4267 22.0693 11.6587 22.5387 10.72 22.88C9.80267 23.2213 8.72533 23.392 7.488 23.392C6.42133 23.392 5.42933 23.2747 4.512 23.04C3.616 22.8053 2.82666 22.5173 2.144 22.176C1.48266 21.8133 0.96 21.4293 0.576 21.024C0.192 20.5973 0 20.2133 0 19.872C0 18.464 0.0746666 17.4507 0.224 16.832C0.394666 16.2133 0.693333 15.904 1.12 15.904C1.41866 15.904 1.728 16.032 2.048 16.288C2.38933 16.544 2.77333 16.832 3.2 17.152C3.62666 17.472 4.11733 17.76 4.672 18.016C5.248 18.272 5.90933 18.4 6.656 18.4C6.95466 18.4 7.24266 18.3787 7.52 18.336C7.81866 18.272 8.07466 18.176 8.288 18.048C8.52266 17.92 8.704 17.7493 8.832 17.536C8.98133 17.3227 9.056 17.0667 9.056 16.768C9.056 16.2347 8.85333 15.808 8.448 15.488C8.04266 15.168 7.53066 14.88 6.912 14.624C6.29333 14.3467 5.62133 14.0693 4.896 13.792C4.192 13.4933 3.53066 13.0987 2.912 12.608C2.29333 12.096 1.78133 11.4453 1.376 10.656C0.970666 9.86666 0.768 8.85333 0.768 7.616C0.768 6.22933 1.024 5.056 1.536 4.096C2.06933 3.136 2.74133 2.35733 3.552 1.76C4.384 1.14133 5.312 0.703999 6.336 0.448C7.38133 0.170666 8.416 0.0319996 9.44 0.0319996ZM21.2805 23.072C20.0858 23.072 19.2325 22.8373 18.7205 22.368C18.2085 21.8987 17.9525 21.2267 17.9525 20.352C17.9525 19.9253 17.9845 19.2 18.0485 18.176C18.1125 17.1307 18.1978 15.9467 18.3045 14.624C18.4112 13.3013 18.5178 11.904 18.6245 10.432C18.7312 8.96 18.8378 7.57333 18.9445 6.272C19.0512 4.97066 19.1365 3.82933 19.2005 2.848C19.2645 1.86666 19.2965 1.19466 19.2965 0.831999C19.2965 0.511999 19.4672 0.351999 19.8085 0.351999H21.5685C22.7632 0.351999 23.5845 0.586666 24.0325 1.056C24.5018 1.504 24.7365 2.176 24.7365 3.072C24.7365 3.17867 24.7258 3.27466 24.7045 3.36C24.7045 3.44533 24.7045 3.54133 24.7045 3.648L23.6485 18.592H29.4085C29.5365 18.592 29.6538 18.6347 29.7605 18.72C29.8672 18.784 29.9205 18.8907 29.9205 19.04L29.7925 20.928C29.7498 21.568 29.5685 22.0907 29.2485 22.496C28.9498 22.88 28.3205 23.072 27.3605 23.072H21.2805ZM43.1867 0C44.7441 0 46.0774 0.224 47.1867 0.671999C48.2961 1.09866 49.2027 1.73866 49.9067 2.592C50.6107 3.424 51.1227 4.448 51.4427 5.664C51.7627 6.85866 51.9227 8.224 51.9227 9.76C51.9227 10.6133 51.8587 11.5413 51.7307 12.544C51.6241 13.5467 51.4107 14.56 51.0907 15.584C50.7921 16.5867 50.3761 17.5573 49.8427 18.496C49.3094 19.4347 48.6161 20.2667 47.7627 20.992C46.9307 21.7173 45.9281 22.304 44.7547 22.752C43.5814 23.1787 42.1947 23.392 40.5947 23.392C38.8241 23.392 37.3521 23.1253 36.1787 22.592C35.0267 22.0587 34.0987 21.344 33.3947 20.448C32.7121 19.5307 32.2214 18.4533 31.9227 17.216C31.6454 15.9787 31.5067 14.656 31.5067 13.248C31.5067 11.584 31.6987 9.96266 32.0827 8.384C32.4667 6.784 33.1067 5.36533 34.0027 4.128C34.9201 2.89066 36.1254 1.89866 37.6187 1.152C39.1121 0.384 40.9681 0 43.1867 0ZM42.5147 4.96C41.7681 4.96 41.1174 5.09866 40.5627 5.376C40.0294 5.632 39.5707 5.984 39.1867 6.432C38.8241 6.88 38.5254 7.38133 38.2907 7.936C38.0774 8.49066 37.9067 9.06666 37.7787 9.664C37.6507 10.24 37.5654 10.8053 37.5227 11.36C37.4801 11.8933 37.4587 12.3733 37.4587 12.8C37.4587 14.7413 37.7787 16.16 38.4187 17.056C39.0801 17.952 40.0081 18.4 41.2027 18.4C42.1841 18.4 42.9841 18.0907 43.6027 17.472C44.2214 16.832 44.7014 16.0747 45.0427 15.2C45.4054 14.304 45.6507 13.3867 45.7787 12.448C45.9067 11.488 45.9707 10.6773 45.9707 10.016C45.9707 8.45866 45.7041 7.232 45.1707 6.336C44.6374 5.41866 43.7521 4.96 42.5147 4.96ZM67.5317 13.824L66.9237 22.592C66.9024 22.7627 66.8811 22.8907 66.8597 22.976C66.8597 23.04 66.7637 23.072 66.5717 23.072H64.8117C63.6171 23.072 62.7637 22.8373 62.2517 22.368C61.7397 21.8987 61.4837 21.2267 61.4837 20.352C61.4837 19.9253 61.5157 19.2 61.5797 18.176C61.6437 17.1307 61.7291 15.9467 61.8357 14.624C61.9424 13.3013 62.0491 11.904 62.1557 10.432C62.2624 8.96 62.3691 7.57333 62.4757 6.272C62.5824 4.97066 62.6677 3.82933 62.7317 2.848C62.7957 1.86666 62.8277 1.19466 62.8277 0.831999C62.8277 0.511999 62.9984 0.351999 63.3397 0.351999H74.6037C74.7317 0.351999 74.8491 0.384 74.9557 0.448C75.0624 0.511999 75.1157 0.629332 75.1157 0.799999L74.9877 2.688C74.9451 3.328 74.7637 3.85066 74.4437 4.256C74.1451 4.64 73.5157 4.832 72.5557 4.832H68.1397L67.8197 9.344H72.3637C72.4917 9.344 72.6091 9.376 72.7157 9.44C72.8224 9.504 72.8757 9.62133 72.8757 9.792L72.7477 11.68C72.7051 12.32 72.5237 12.8427 72.2037 13.248C71.9051 13.632 71.2757 13.824 70.3157 13.824H67.5317ZM79.6555 23.072C78.4608 23.072 77.6075 22.8373 77.0955 22.368C76.5835 21.8987 76.3275 21.2267 76.3275 20.352C76.3275 19.9253 76.3595 19.2 76.4235 18.176C76.4875 17.1307 76.5728 15.9467 76.6795 14.624C76.7862 13.3013 76.8928 11.904 76.9995 10.432C77.1062 8.96 77.2128 7.57333 77.3195 6.272C77.4262 4.97066 77.5115 3.82933 77.5755 2.848C77.6395 1.86666 77.6715 1.19466 77.6715 0.831999C77.6715 0.511999 77.8422 0.351999 78.1835 0.351999H79.9435C81.1382 0.351999 81.9595 0.586666 82.4075 1.056C82.8768 1.504 83.1115 2.176 83.1115 3.072C83.1115 3.17867 83.1008 3.27466 83.0795 3.36C83.0795 3.44533 83.0795 3.54133 83.0795 3.648L82.0235 18.592H87.7835C87.9115 18.592 88.0288 18.6347 88.1355 18.72C88.2422 18.784 88.2955 18.8907 88.2955 19.04L88.1675 20.928C88.1248 21.568 87.9435 22.0907 87.6235 22.496C87.3248 22.88 86.6955 23.072 85.7355 23.072H79.6555ZM101.562 0C103.119 0 104.452 0.224 105.562 0.671999C106.671 1.09866 107.578 1.73866 108.282 2.592C108.986 3.424 109.498 4.448 109.818 5.664C110.138 6.85866 110.298 8.224 110.298 9.76C110.298 10.6133 110.234 11.5413 110.106 12.544C109.999 13.5467 109.786 14.56 109.466 15.584C109.167 16.5867 108.751 17.5573 108.218 18.496C107.684 19.4347 106.991 20.2667 106.138 20.992C105.306 21.7173 104.303 22.304 103.13 22.752C101.956 23.1787 100.57 23.392 98.9697 23.392C97.1991 23.392 95.7271 23.1253 94.5537 22.592C93.4017 22.0587 92.4737 21.344 91.7697 20.448C91.0871 19.5307 90.5964 18.4533 90.2977 17.216C90.0204 15.9787 89.8817 14.656 89.8817 13.248C89.8817 11.584 90.0737 9.96266 90.4577 8.384C90.8417 6.784 91.4817 5.36533 92.3777 4.128C93.2951 2.89066 94.5004 1.89866 95.9937 1.152C97.4871 0.384 99.3431 0 101.562 0ZM100.89 4.96C100.143 4.96 99.4924 5.09866 98.9377 5.376C98.4044 5.632 97.9457 5.984 97.5617 6.432C97.1991 6.88 96.9004 7.38133 96.6657 7.936C96.4524 8.49066 96.2817 9.06666 96.1537 9.664C96.0257 10.24 95.9404 10.8053 95.8977 11.36C95.8551 11.8933 95.8337 12.3733 95.8337 12.8C95.8337 14.7413 96.1537 16.16 96.7937 17.056C97.4551 17.952 98.3831 18.4 99.5777 18.4C100.559 18.4 101.359 18.0907 101.978 17.472C102.596 16.832 103.076 16.0747 103.418 15.2C103.78 14.304 104.026 13.3867 104.154 12.448C104.282 11.488 104.346 10.6773 104.346 10.016C104.346 8.45866 104.079 7.232 103.546 6.336C103.012 5.41866 102.127 4.96 100.89 4.96ZM132.478 18.304C132.691 17.1733 132.883 16.192 133.054 15.36C133.224 14.5067 133.374 13.7173 133.502 12.992C133.63 12.2667 133.747 11.552 133.854 10.848C133.982 10.1227 134.11 9.32266 134.238 8.448C134.387 7.552 134.547 6.53866 134.718 5.408C134.91 4.256 135.134 2.88 135.39 1.28C135.454 0.874666 135.56 0.618666 135.71 0.511999C135.859 0.384 136.232 0.32 136.83 0.32C137.064 0.32 137.416 0.341333 137.886 0.383999C138.355 0.405333 138.824 0.501333 139.294 0.671999C139.763 0.821333 140.168 1.06666 140.51 1.408C140.872 1.728 141.054 2.18666 141.054 2.784C141.054 3.12533 140.99 3.65866 140.862 4.384C140.734 5.088 140.552 5.90933 140.318 6.848C140.104 7.76533 139.848 8.768 139.55 9.856C139.272 10.944 138.984 12.0427 138.686 13.152C138.387 14.2613 138.078 15.3387 137.758 16.384C137.459 17.4293 137.171 18.3787 136.894 19.232C136.638 20.064 136.403 20.768 136.19 21.344C135.976 21.92 135.827 22.2933 135.742 22.464C135.614 22.6987 135.432 22.8587 135.198 22.944C134.963 23.0293 134.728 23.072 134.494 23.072H131.454C130.899 23.072 130.43 22.9653 130.046 22.752C129.683 22.5387 129.374 22.2613 129.118 21.92C128.883 21.5787 128.691 21.1947 128.542 20.768C128.414 20.3413 128.328 19.904 128.286 19.456L126.686 5.088C126.558 6.02666 126.408 7.08266 126.238 8.256C126.088 9.42933 125.918 10.624 125.726 11.84C125.555 13.056 125.384 14.2507 125.214 15.424C125.043 16.5973 124.872 17.6747 124.702 18.656C124.531 19.616 124.371 20.4373 124.222 21.12C124.072 21.8027 123.944 22.2507 123.838 22.464C123.731 22.6987 123.56 22.8587 123.326 22.944C123.091 23.0293 122.846 23.072 122.59 23.072H119.55C119.016 23.072 118.568 22.976 118.206 22.784C117.864 22.5707 117.576 22.2933 117.342 21.952C117.107 21.6107 116.915 21.2267 116.766 20.8C116.616 20.352 116.488 19.904 116.382 19.456C115.507 15.9787 114.792 13.12 114.238 10.88C113.704 8.64 113.278 6.848 112.958 5.504C112.638 4.13866 112.414 3.14666 112.286 2.528C112.179 1.888 112.126 1.42933 112.126 1.152C112.126 0.789333 112.232 0.554667 112.446 0.448C112.68 0.341333 113.16 0.288 113.886 0.288C114.782 0.288 115.528 0.352 116.126 0.48C116.744 0.607999 117.246 0.810666 117.63 1.088C118.014 1.344 118.302 1.696 118.494 2.144C118.707 2.57066 118.846 3.09333 118.91 3.712C118.91 3.79733 118.92 3.92533 118.942 4.096C118.963 4.24533 118.984 4.50133 119.006 4.864C119.048 5.22666 119.102 5.728 119.166 6.368C119.251 6.98666 119.347 7.81866 119.454 8.864C119.582 9.90933 119.731 11.2107 119.902 12.768C120.094 14.304 120.318 16.1493 120.574 18.304C120.808 17.0027 120.99 15.9573 121.118 15.168C121.267 14.3573 121.395 13.6533 121.502 13.056C121.608 12.4373 121.704 11.8507 121.79 11.296C121.875 10.72 121.971 10.016 122.078 9.184C122.206 8.33066 122.344 7.264 122.494 5.984C122.664 4.704 122.878 3.04 123.134 0.991999C123.155 0.842666 123.24 0.725333 123.39 0.639999C123.56 0.554666 123.763 0.490666 123.998 0.448C124.232 0.405333 124.488 0.383999 124.766 0.383999C125.064 0.362666 125.342 0.351999 125.598 0.351999C126.451 0.351999 127.176 0.405333 127.774 0.511999C128.371 0.597333 128.862 0.757333 129.246 0.991999C129.651 1.22666 129.971 1.54666 130.206 1.952C130.44 2.336 130.632 2.816 130.782 3.392C130.846 3.66933 130.92 4.05333 131.006 4.544C131.091 5.01333 131.187 5.77066 131.294 6.816C131.422 7.86133 131.571 9.30133 131.742 11.136C131.934 12.9493 132.179 15.3387 132.478 18.304ZM170.178 6.016C170.007 6.528 169.783 7.2 169.506 8.032C169.25 8.84266 168.962 9.73866 168.642 10.72C168.322 11.7013 167.991 12.7467 167.65 13.856C167.309 14.944 166.957 16.0107 166.594 17.056C166.253 18.1013 165.911 19.104 165.57 20.064C165.229 21.0027 164.919 21.824 164.642 22.528C164.557 22.6987 164.375 22.8373 164.098 22.944C163.842 23.0293 163.426 23.072 162.85 23.072C162.487 23.072 162.114 23.0507 161.73 23.008C161.346 22.9653 160.983 22.88 160.642 22.752C160.322 22.624 160.034 22.4533 159.778 22.24C159.543 22.0267 159.362 21.76 159.234 21.44C158.914 20.352 158.605 19.1467 158.306 17.824C158.029 16.48 157.751 15.1147 157.474 13.728C157.197 12.3413 156.919 10.9867 156.642 9.664C156.386 8.32 156.119 7.104 155.842 6.016C155.842 6.31466 155.831 6.82666 155.81 7.552C155.789 8.27733 155.767 9.12 155.746 10.08C155.725 11.04 155.693 12.0747 155.65 13.184C155.629 14.2933 155.607 15.3813 155.586 16.448C155.565 17.4933 155.543 18.4747 155.522 19.392C155.501 20.288 155.49 21.024 155.49 21.6C155.49 22.24 155.447 22.6453 155.362 22.816C155.298 22.9867 155.17 23.072 154.978 23.072H153.218C152.002 23.072 151.138 22.8373 150.626 22.368C150.135 21.8773 149.89 21.1627 149.89 20.224C149.89 19.968 149.901 19.5413 149.922 18.944C149.965 18.3253 150.018 17.6 150.082 16.768C150.146 15.936 150.21 15.0293 150.274 14.048C150.359 13.0453 150.445 12.032 150.53 11.008C150.637 9.62133 150.722 8.46933 150.786 7.552C150.871 6.61333 150.935 5.83466 150.978 5.216C151.021 4.59733 151.053 4.096 151.074 3.712C151.117 3.328 151.138 2.98666 151.138 2.688C151.159 2.38933 151.17 2.112 151.17 1.856C151.191 1.57866 151.202 1.23733 151.202 0.831999C151.202 0.661333 151.266 0.544 151.394 0.48C151.522 0.394666 151.639 0.351999 151.746 0.351999H156.226C157.058 0.351999 157.741 0.490666 158.274 0.768C158.807 1.024 159.245 1.42933 159.586 1.984C159.927 2.53866 160.205 3.264 160.418 4.16C160.631 5.03466 160.823 6.08 160.994 7.296C161.186 8.512 161.389 9.92 161.602 11.52C161.837 13.0987 162.135 14.88 162.498 16.864C162.839 15.5413 163.127 14.4427 163.362 13.568C163.597 12.6933 163.789 11.968 163.938 11.392C164.109 10.7947 164.247 10.304 164.354 9.92C164.461 9.536 164.557 9.184 164.642 8.864C164.727 8.52266 164.823 8.16 164.93 7.776C165.037 7.392 165.165 6.912 165.314 6.336C165.463 5.76 165.645 5.04533 165.858 4.192C166.093 3.31733 166.381 2.21866 166.722 0.896C166.765 0.767999 166.839 0.650665 166.946 0.543999C167.053 0.415999 167.245 0.351999 167.522 0.351999H172.514C173.197 0.351999 173.741 0.426666 174.146 0.576C174.573 0.704 174.903 0.895999 175.138 1.152C175.373 1.408 175.533 1.728 175.618 2.112C175.703 2.47466 175.746 2.90133 175.746 3.392C175.746 3.88266 175.714 4.68266 175.65 5.792C175.607 6.88 175.533 8.11733 175.426 9.504C175.341 10.8693 175.245 12.288 175.138 13.76C175.053 15.232 174.957 16.5973 174.85 17.856C174.765 19.1147 174.69 20.1813 174.626 21.056C174.562 21.9307 174.519 22.4427 174.498 22.592C174.477 22.7627 174.434 22.8907 174.37 22.976C174.306 23.04 174.178 23.072 173.986 23.072H172.226C171.01 23.072 170.146 22.8373 169.634 22.368C169.143 21.8773 168.898 21.248 168.898 20.48C168.898 20.2453 168.919 19.8187 168.962 19.2C169.026 18.5813 169.101 17.856 169.186 17.024C169.271 16.192 169.367 15.2853 169.474 14.304C169.581 13.3013 169.677 12.3093 169.762 11.328C169.847 10.3467 169.922 9.39733 169.986 8.48C170.071 7.54133 170.135 6.72 170.178 6.016ZM189.32 4.832L188.104 22.592C188.083 22.912 187.966 23.072 187.752 23.072H185.992C184.798 23.072 183.944 22.8373 183.432 22.368C182.92 21.8987 182.664 21.2267 182.664 20.352C182.664 20.032 182.675 19.552 182.696 18.912C182.739 18.272 182.792 17.5253 182.856 16.672C182.92 15.7973 182.984 14.8587 183.048 13.856C183.134 12.832 183.219 11.808 183.304 10.784C183.39 9.73866 183.464 8.704 183.528 7.68C183.614 6.656 183.688 5.70666 183.752 4.832H178.632C178.398 4.832 178.28 4.68266 178.28 4.384L178.376 2.592C178.398 2.31466 178.44 2.048 178.504 1.792C178.59 1.51466 178.718 1.26933 178.888 1.056C179.059 0.842667 179.272 0.672 179.528 0.543999C179.806 0.415999 180.136 0.351999 180.52 0.351999H194.824C194.952 0.351999 195.07 0.384 195.176 0.448C195.283 0.511999 195.336 0.629332 195.336 0.799999L195.208 2.688C195.166 3.328 194.984 3.85066 194.664 4.256C194.366 4.64 193.736 4.832 192.776 4.832H189.32ZM202.663 23.392C201.404 23.392 200.369 23.3067 199.559 23.136C198.748 22.9867 198.097 22.7627 197.607 22.464C197.137 22.144 196.807 21.7493 196.615 21.28C196.444 20.8107 196.359 20.256 196.359 19.616C196.359 19.424 196.369 19.1573 196.391 18.816C196.412 18.4533 196.444 17.952 196.487 17.312C196.529 16.672 196.583 15.8507 196.647 14.848C196.732 13.824 196.839 12.544 196.967 11.008C197.116 9.10933 197.233 7.60533 197.319 6.496C197.404 5.38666 197.468 4.53333 197.511 3.936C197.553 3.31733 197.575 2.89066 197.575 2.656C197.596 2.4 197.607 2.18666 197.607 2.016C197.607 1.67466 197.607 1.39733 197.607 1.184C197.628 0.970667 197.649 0.810666 197.671 0.703999C197.713 0.575999 197.767 0.490666 197.831 0.448C197.916 0.384 198.033 0.351999 198.183 0.351999C199.441 0.266666 200.508 0.202666 201.383 0.16C202.279 0.117333 203.057 0.0959988 203.719 0.0959988C205.34 0.0959988 206.727 0.234666 207.879 0.511999C209.052 0.768 210.001 1.14133 210.727 1.632C211.452 2.12266 211.985 2.73066 212.327 3.456C212.668 4.18133 212.839 5.00266 212.839 5.92C212.839 6.432 212.785 6.96533 212.679 7.52C212.572 8.05333 212.391 8.56533 212.135 9.056C211.879 9.54666 211.527 9.984 211.079 10.368C210.652 10.7307 210.108 10.9973 209.447 11.168C210.684 11.552 211.559 12.192 212.071 13.088C212.583 13.9627 212.839 15.008 212.839 16.224C212.839 17.2053 212.679 18.1333 212.359 19.008C212.039 19.8613 211.484 20.6187 210.695 21.28C209.905 21.92 208.86 22.432 207.559 22.816C206.257 23.2 204.625 23.392 202.663 23.392ZM204.487 13.472C204.252 13.472 203.964 13.4933 203.623 13.536C203.281 13.5573 202.929 13.6 202.567 13.664L202.215 18.88C202.983 19.1147 203.676 19.232 204.295 19.232C204.956 19.232 205.489 19.136 205.895 18.944C206.3 18.752 206.609 18.5173 206.823 18.24C207.057 17.9413 207.207 17.6213 207.271 17.28C207.356 16.9173 207.399 16.5867 207.399 16.288C207.399 15.4987 207.175 14.8373 206.727 14.304C206.3 13.7493 205.553 13.472 204.487 13.472ZM203.143 4.672C203.1 5.22666 203.057 5.87733 203.015 6.624C202.993 7.37066 202.951 8.18133 202.887 9.056C203.569 9.22666 204.177 9.312 204.711 9.312C205.351 9.312 205.863 9.23733 206.247 9.088C206.631 8.93866 206.929 8.74666 207.143 8.512C207.377 8.27733 207.527 8.02133 207.591 7.744C207.676 7.46666 207.719 7.2 207.719 6.944C207.719 6.28266 207.495 5.71733 207.047 5.248C206.62 4.75733 205.873 4.512 204.807 4.512C204.572 4.512 204.305 4.53333 204.007 4.576C203.729 4.59733 203.441 4.62933 203.143 4.672Z" fill="white"/>
</g>
<defs>
<clipPath id="clip0_325_2">
<rect width="213" height="24" fill="white"/>
</clipPath>
</defs>
</svg>
