<svg width="245" height="83" viewBox="0 0 245 83" fill="none" xmlns="http://www.w3.org/2000/svg">
<path d="M51.3666 72.6615C51.2785 72.4168 51.1659 72.2504 51.0288 72.1623C50.8918 72.0644 50.7156 72.0154 50.5002 72.0154H49.5898V71.5456H53.9362V72.0154H53.2314C53.0943 72.0154 52.9768 72.0546 52.879 72.1329C52.7811 72.2014 52.7321 72.2846 52.7321 72.3825C52.7321 72.4608 52.7517 72.5685 52.7909 72.7056L54.7438 79.46L56.5205 73.0286L56.3736 72.5587C56.3051 72.3629 56.1681 72.2259 55.9625 72.1476C55.7569 72.0595 55.5465 72.0154 55.3311 72.0154H54.9053V71.5456H59.2516V72.0154H58.679C58.1797 72.0154 57.9301 72.2699 57.9301 72.779C57.9301 72.916 57.9595 73.0677 58.0182 73.2342L59.8683 79.5921L61.6891 73.8068C61.7576 73.5425 61.8017 73.3418 61.8212 73.2048C61.8506 73.058 61.8653 72.8818 61.8653 72.6762C61.8653 72.4902 61.7772 72.3336 61.601 72.2063C61.4346 72.0791 61.1996 72.0154 60.8962 72.0154H60.3969V71.5456H64.3615V72.0154H63.7301C63.3973 72.0154 63.1379 72.1133 62.9519 72.3091C62.7757 72.5049 62.6386 72.7643 62.5407 73.0873L59.6187 82.2645H59.2516L56.8435 74.1005L54.5235 82.2645H54.1564L51.3666 72.6615Z" fill="black"/>
<path d="M69.0588 82.2645C68.2366 82.2645 67.5024 82.0051 66.8563 81.4863C66.2102 80.9675 65.7061 80.2872 65.3439 79.4453C64.9817 78.5937 64.8006 77.7029 64.8006 76.7729C64.8006 75.8429 64.9817 74.957 65.3439 74.1152C65.7061 73.2635 66.2102 72.5783 66.8563 72.0595C67.5024 71.5407 68.2366 71.2812 69.0588 71.2812C69.8811 71.2812 70.6153 71.5407 71.2614 72.0595C71.9075 72.5783 72.4116 73.2635 72.7738 74.1152C73.136 74.957 73.3171 75.8429 73.3171 76.7729C73.3171 77.7029 73.136 78.5937 72.7738 79.4453C72.4116 80.2872 71.9075 80.9675 71.2614 81.4863C70.6153 82.0051 69.8811 82.2645 69.0588 82.2645ZM69.0588 81.7947C70.0182 81.7947 70.7083 81.3591 71.1292 80.4878C71.5502 79.6068 71.7606 78.3685 71.7606 76.7729C71.7606 75.1675 71.5502 73.9292 71.1292 73.058C70.7083 72.1867 70.0182 71.7511 69.0588 71.7511C68.0995 71.7511 67.4094 72.1867 66.9885 73.058C66.5675 73.9292 66.3571 75.1675 66.3571 76.7729C66.3571 78.3685 66.5675 79.6068 66.9885 80.4878C67.4094 81.3591 68.0995 81.7947 69.0588 81.7947Z" fill="black"/>
<path d="M79.3402 82.2645C78.5179 82.2645 77.7837 82.0051 77.1377 81.4863C76.4916 80.9675 75.9875 80.2872 75.6253 79.4453C75.2631 78.5937 75.082 77.7029 75.082 76.7729C75.082 75.8429 75.2631 74.957 75.6253 74.1152C75.9875 73.2635 76.4916 72.5783 77.1377 72.0595C77.7837 71.5407 78.5179 71.2812 79.3402 71.2812C80.1625 71.2812 80.8967 71.5407 81.5427 72.0595C82.1888 72.5783 82.6929 73.2635 83.0551 74.1152C83.4173 74.957 83.5984 75.8429 83.5984 76.7729C83.5984 77.7029 83.4173 78.5937 83.0551 79.4453C82.6929 80.2872 82.1888 80.9675 81.5427 81.4863C80.8967 82.0051 80.1625 82.2645 79.3402 82.2645ZM79.3402 81.7947C80.2995 81.7947 80.9896 81.3591 81.4106 80.4878C81.8315 79.6068 82.042 78.3685 82.042 76.7729C82.042 75.1675 81.8315 73.9292 81.4106 73.058C80.9896 72.1867 80.2995 71.7511 79.3402 71.7511C78.3809 71.7511 77.6907 72.1867 77.2698 73.058C76.8489 73.9292 76.6384 75.1675 76.6384 76.7729C76.6384 78.3685 76.8489 79.6068 77.2698 80.4878C77.6907 81.3591 78.3809 81.7947 79.3402 81.7947Z" fill="black"/>
<path d="M85.2458 81.5304H86.3031C86.5674 81.5304 86.6995 81.3982 86.6995 81.1339V72.4119C86.6995 72.2748 86.6653 72.1769 86.5967 72.1182C86.538 72.0497 86.4401 72.0154 86.3031 72.0154H85.2458V71.5456H90.62C91.4325 71.5456 92.1765 71.7658 92.8519 72.2063C93.5274 72.637 94.0609 73.244 94.4524 74.0271C94.8538 74.8004 95.0545 75.6863 95.0545 76.6848C95.0545 77.6833 94.8538 78.5888 94.4524 79.4012C94.0609 80.2137 93.5225 80.85 92.8372 81.3101C92.1618 81.7702 91.4227 82.0002 90.62 82.0002H85.2458V81.5304ZM90.5613 81.5304C91.2465 81.5304 91.8094 81.3003 92.2499 80.8402C92.6904 80.3704 93.0086 79.7732 93.2043 79.0488C93.4001 78.3147 93.498 77.5267 93.498 76.6848C93.498 75.3731 93.2582 74.2669 92.7785 73.3663C92.3086 72.4657 91.5696 72.0154 90.5613 72.0154H88.4469C88.3098 72.0154 88.207 72.0497 88.1385 72.1182C88.0798 72.1769 88.0504 72.2748 88.0504 72.4119V81.1339C88.0504 81.3982 88.1826 81.5304 88.4469 81.5304H90.5613Z" fill="black"/>
<path d="M96.703 81.5304H97.7602C98.0245 81.5304 98.1567 81.3982 98.1567 81.1339V72.4119C98.1567 72.2748 98.1224 72.1769 98.0539 72.1182C97.9952 72.0497 97.8973 72.0154 97.7602 72.0154H96.703V71.5456H104.896L104.955 75.2164H104.588C104.588 75.0207 104.544 74.6878 104.456 74.218C104.378 73.7481 104.216 73.3272 103.971 72.9552C103.56 72.3287 102.983 72.0154 102.239 72.0154H99.904C99.767 72.0154 99.6642 72.0497 99.5957 72.1182C99.537 72.1769 99.5076 72.2748 99.5076 72.4119V76.3618H100.638C101.137 76.3618 101.495 76.0975 101.71 75.5688C101.935 75.0304 102.048 74.4676 102.048 73.8802H102.43V79.3131H102.048C102.048 78.7258 101.935 78.1678 101.71 77.6392C101.495 77.1008 101.137 76.8316 100.638 76.8316H99.5076V81.0458C99.5076 81.1926 99.537 81.3101 99.5957 81.3982C99.6642 81.4863 99.767 81.5304 99.904 81.5304H101.196V82.0002H96.703V81.5304Z" fill="black"/>
<path d="M106.626 81.5304H107.683C107.947 81.5304 108.08 81.3982 108.08 81.1339V72.4119C108.08 72.2748 108.045 72.1769 107.977 72.1182C107.918 72.0497 107.82 72.0154 107.683 72.0154H106.626V71.5456H110.884V72.0154H109.827C109.69 72.0154 109.587 72.0497 109.519 72.1182C109.46 72.1769 109.43 72.2748 109.43 72.4119V81.1339C109.43 81.3982 109.563 81.5304 109.827 81.5304H110.884V82.0002H106.626V81.5304Z" fill="black"/>
<path d="M120.011 82.1764C119.688 82.1764 119.414 82.1226 119.188 82.0149C118.973 81.9072 118.802 81.731 118.675 81.4863C118.41 80.9773 118.268 80.111 118.249 78.8873C118.239 78.2315 118.121 77.6882 117.896 77.2575C117.671 76.8169 117.309 76.5967 116.81 76.5967H115.209V81.1339C115.209 81.271 115.239 81.3737 115.297 81.4423C115.356 81.501 115.459 81.5304 115.606 81.5304H116.913V82.0002H112.405V81.5304H113.462C113.726 81.5304 113.858 81.3982 113.858 81.1339V72.4119C113.858 72.2748 113.824 72.1769 113.756 72.1182C113.697 72.0497 113.599 72.0154 113.462 72.0154H112.405V71.5456H117.221C118.17 71.5456 118.949 71.7267 119.556 72.0888C120.162 72.451 120.466 73.0531 120.466 73.8949C120.466 74.6193 120.192 75.2018 119.644 75.6423C119.105 76.0828 118.454 76.3422 117.691 76.4205V76.4792C118.249 76.5869 118.704 76.8463 119.056 77.2575C119.419 77.6588 119.658 78.3489 119.776 79.3278C119.844 79.8858 119.903 80.2921 119.952 80.5466C120.011 80.8011 120.079 80.9822 120.158 81.0899C120.246 81.1877 120.373 81.2367 120.539 81.2367C120.96 81.2367 121.171 80.7081 121.171 79.6509H121.538C121.538 80.2872 121.445 80.8696 121.259 81.3982C121.073 81.917 120.657 82.1764 120.011 82.1764ZM116.634 76.1268C117.456 76.1268 118.038 75.931 118.381 75.5395C118.733 75.1381 118.909 74.5899 118.909 73.8949C118.909 73.2978 118.748 72.8377 118.425 72.5147C118.112 72.1818 117.681 72.0154 117.133 72.0154H115.606C115.469 72.0154 115.366 72.0497 115.297 72.1182C115.239 72.1769 115.209 72.2748 115.209 72.4119V76.1268H116.634Z" fill="black"/>
<path d="M122.915 81.5304H123.973C124.237 81.5304 124.369 81.3982 124.369 81.1339V72.4119C124.369 72.2748 124.335 72.1769 124.266 72.1182C124.208 72.0497 124.11 72.0154 123.973 72.0154H122.915V71.5456H131.109L131.168 75.2164H130.801C130.801 75.0207 130.756 74.6878 130.668 74.218C130.59 73.7481 130.429 73.3272 130.184 72.9552C129.773 72.3287 129.195 72.0154 128.451 72.0154H126.116C125.979 72.0154 125.877 72.0497 125.808 72.1182C125.749 72.1769 125.72 72.2748 125.72 72.4119V76.3618H126.851C127.35 76.3618 127.707 76.1072 127.923 75.5982C128.148 75.0892 128.26 74.5459 128.26 73.9683H128.642V79.225H128.26C128.26 78.6475 128.148 78.1042 127.923 77.5952C127.707 77.0861 127.35 76.8316 126.851 76.8316H125.72V81.1339C125.72 81.3982 125.852 81.5304 126.116 81.5304H128.466C128.75 81.5304 129.038 81.4667 129.332 81.3395C129.626 81.2122 129.875 81.0164 130.081 80.7521C130.277 80.478 130.438 80.1354 130.566 79.7243C130.693 79.3131 130.781 78.9412 130.83 78.6083C130.879 78.2657 130.908 78.0455 130.918 77.9476H131.285L131.109 82.0002H122.915V81.5304Z" fill="black"/>
<path d="M133.053 81.5304H134.111C134.375 81.5304 134.507 81.3982 134.507 81.1339V72.4119C134.507 72.2748 134.473 72.1769 134.404 72.1182C134.346 72.0497 134.248 72.0154 134.111 72.0154H133.053V71.5456H138.428C139.24 71.5456 139.984 71.7658 140.659 72.2063C141.335 72.637 141.868 73.244 142.26 74.0271C142.661 74.8004 142.862 75.6863 142.862 76.6848C142.862 77.6833 142.661 78.5888 142.26 79.4012C141.868 80.2137 141.33 80.85 140.645 81.3101C139.969 81.7702 139.23 82.0002 138.428 82.0002H133.053V81.5304ZM138.369 81.5304C139.054 81.5304 139.617 81.3003 140.057 80.8402C140.498 80.3704 140.816 79.7732 141.012 79.0488C141.208 78.3147 141.306 77.5267 141.306 76.6848C141.306 75.3731 141.066 74.2669 140.586 73.3663C140.116 72.4657 139.377 72.0154 138.369 72.0154H136.254C136.117 72.0154 136.015 72.0497 135.946 72.1182C135.887 72.1769 135.858 72.2748 135.858 72.4119V81.1339C135.858 81.3982 135.99 81.5304 136.254 81.5304H138.369Z" fill="black"/>
<path d="M148.626 81.5304H149.683C149.948 81.5304 150.08 81.3982 150.08 81.1339V72.4119C150.08 72.2748 150.045 72.1769 149.977 72.1182C149.918 72.0497 149.82 72.0154 149.683 72.0154H148.626V71.5456H153.53C154.216 71.5456 154.822 71.663 155.351 71.898C155.889 72.1231 156.305 72.4461 156.599 72.8671C156.903 73.2782 157.054 73.7481 157.054 74.2767C157.054 74.8151 156.903 75.2948 156.599 75.7157C156.305 76.1366 155.889 76.4694 155.351 76.7142C154.822 76.9491 154.216 77.0666 153.53 77.0666H151.431V81.1339C151.431 81.271 151.46 81.3737 151.519 81.4423C151.577 81.501 151.68 81.5304 151.827 81.5304H153.119V82.0002H148.626V81.5304ZM153.721 76.5967C154.25 76.5967 154.676 76.3715 154.999 75.9212C155.331 75.4612 155.498 74.913 155.498 74.2767C155.498 73.6404 155.336 73.1069 155.013 72.6762C154.69 72.2357 154.26 72.0154 153.721 72.0154H151.827C151.69 72.0154 151.587 72.0497 151.519 72.1182C151.46 72.1769 151.431 72.2748 151.431 72.4119V76.5967H153.721Z" fill="black"/>
<path d="M158.606 81.5304H159.663C159.928 81.5304 160.06 81.3982 160.06 81.1339V72.4119C160.06 72.2748 160.026 72.1769 159.957 72.1182C159.898 72.0497 159.8 72.0154 159.663 72.0154H158.606V71.5456H162.864V72.0154H161.807C161.67 72.0154 161.567 72.0497 161.499 72.1182C161.44 72.1769 161.411 72.2748 161.411 72.4119V81.1339C161.411 81.3982 161.543 81.5304 161.807 81.5304H162.864V82.0002H158.606V81.5304Z" fill="black"/>
<path d="M164.473 81.5304L170.552 72.0154H167.792C167.469 72.0154 167.165 72.1035 166.881 72.2797C166.607 72.4559 166.377 72.6517 166.191 72.8671C165.956 73.1412 165.76 73.4593 165.604 73.8215C165.447 74.1739 165.33 74.5018 165.251 74.8053C165.173 75.099 165.134 75.2654 165.134 75.3045H164.767L165.119 71.5456H172.109V72.0154L166.088 81.5304H169.025C169.358 81.5304 169.7 81.4325 170.053 81.2367C170.405 81.0311 170.694 80.7717 170.919 80.4585C171.164 80.1061 171.365 79.7194 171.521 79.2985C171.688 78.8677 171.81 78.4811 171.888 78.1385C171.967 77.7958 172.006 77.605 172.006 77.5658H172.373L172.138 82.0002H164.473V81.5304Z" fill="black"/>
<path d="M174.052 81.5304L180.131 72.0154H177.37C177.047 72.0154 176.744 72.1035 176.46 72.2797C176.186 72.4559 175.956 72.6517 175.77 72.8671C175.535 73.1412 175.339 73.4593 175.182 73.8215C175.026 74.1739 174.908 74.5018 174.83 74.8053C174.752 75.099 174.713 75.2654 174.713 75.3045H174.345L174.698 71.5456H181.687V72.0154L175.667 81.5304H178.604C178.937 81.5304 179.279 81.4325 179.632 81.2367C179.984 81.0311 180.273 80.7717 180.498 80.4585C180.743 80.1061 180.943 79.7194 181.1 79.2985C181.266 78.8677 181.389 78.4811 181.467 78.1385C181.545 77.7958 181.584 77.605 181.584 77.5658H181.952L181.717 82.0002H174.052V81.5304Z" fill="black"/>
<path d="M183.307 81.5304H183.851C184.428 81.5304 184.849 81.1731 185.114 80.4585L188.271 71.5456H188.638L191.824 80.8843C191.922 81.129 192.039 81.3003 192.176 81.3982C192.313 81.4863 192.49 81.5304 192.705 81.5304H193.527V82.0002H188.975V81.5304H189.944C190.091 81.5304 190.214 81.4961 190.312 81.4276C190.409 81.3493 190.458 81.2612 190.458 81.1633C190.458 81.036 190.439 80.9283 190.4 80.8402L189.71 78.8873H186.274L185.921 79.8711C185.784 80.2627 185.716 80.5466 185.716 80.7228C185.716 80.9381 185.769 81.129 185.877 81.2954C185.985 81.4521 186.171 81.5304 186.435 81.5304H187.331V82.0002H183.307V81.5304ZM186.435 78.4175H189.548L188.021 73.939L186.435 78.4175Z" fill="black"/>
<path d="M93.4683 21.5695L93.466 22.0001H91.4199V18.7191H93.466V19.1497H91.9554V20.1386H93.163V20.5555H91.9554V21.5695H93.4683Z" fill="black"/>
<path d="M95.7612 19.2796C95.7445 19.3069 95.727 19.3274 95.7088 19.3411C95.6906 19.3533 95.6678 19.3593 95.6405 19.3593C95.6116 19.3593 95.5789 19.3472 95.5425 19.3229C95.5075 19.2986 95.4635 19.272 95.4103 19.2431C95.3587 19.2127 95.2972 19.1854 95.2258 19.1611C95.1544 19.1353 95.0693 19.1224 94.9706 19.1224C94.8794 19.1224 94.7989 19.1338 94.7291 19.1565C94.6607 19.1793 94.603 19.2112 94.5559 19.2522C94.5088 19.2933 94.4731 19.3419 94.4488 19.3981C94.426 19.4527 94.4146 19.5127 94.4146 19.5781C94.4146 19.6616 94.4367 19.7315 94.4807 19.7877C94.5248 19.8424 94.5825 19.8895 94.6539 19.9289C94.7268 19.9684 94.8096 20.0034 94.9022 20.0338C94.9949 20.0626 95.0891 20.0938 95.1848 20.1272C95.282 20.1606 95.3769 20.1986 95.4696 20.2411C95.5622 20.2836 95.6442 20.3376 95.7156 20.4029C95.7886 20.4682 95.847 20.5479 95.8911 20.6421C95.9351 20.7363 95.9572 20.851 95.9572 20.9862C95.9572 21.132 95.9321 21.2687 95.882 21.3963C95.8318 21.5239 95.7589 21.6355 95.6632 21.7312C95.5691 21.8254 95.4521 21.8998 95.3124 21.9545C95.1741 22.0092 95.0161 22.0365 94.8384 22.0365C94.7336 22.0365 94.6311 22.0259 94.5308 22.0046C94.4321 21.9849 94.3372 21.9568 94.246 21.9203C94.1564 21.8824 94.0721 21.8368 93.9931 21.7836C93.9141 21.7305 93.8435 21.6712 93.7812 21.6059L93.9361 21.3507C93.9498 21.3295 93.9673 21.3127 93.9886 21.3006C94.0098 21.2884 94.0334 21.2824 94.0592 21.2824C94.0941 21.2824 94.1329 21.2991 94.1754 21.3325C94.2179 21.3644 94.2688 21.4001 94.328 21.4396C94.3888 21.4776 94.4617 21.5133 94.5468 21.5467C94.6318 21.5786 94.7336 21.5945 94.8521 21.5945C95.045 21.5945 95.1939 21.5474 95.2987 21.4533C95.405 21.3591 95.4582 21.2292 95.4582 21.0636C95.4582 20.971 95.4361 20.8958 95.3921 20.8381C95.348 20.7788 95.2896 20.7295 95.2167 20.69C95.1453 20.6505 95.0632 20.617 94.9706 20.5897C94.8779 20.5624 94.7837 20.5335 94.688 20.5031C94.5924 20.4712 94.4982 20.4348 94.4055 20.3938C94.3129 20.3512 94.2301 20.2965 94.1572 20.2297C94.0858 20.1614 94.028 20.0778 93.984 19.9791C93.9399 19.8788 93.9179 19.7543 93.9179 19.6054C93.9179 19.4869 93.9407 19.3722 93.9863 19.2614C94.0334 19.1505 94.101 19.0525 94.1891 18.9674C94.2787 18.8808 94.3888 18.8117 94.5194 18.7601C94.6501 18.7084 94.7989 18.6826 94.966 18.6826C95.1544 18.6826 95.3268 18.7122 95.4832 18.7715C95.6412 18.8307 95.7772 18.915 95.8911 19.0244L95.7612 19.2796Z" fill="black"/>
<path d="M98.7911 19.1634H97.7681V22.0001H97.2372V19.1634H96.2119V18.7191H98.7911V19.1634Z" fill="black"/>
<path d="M102.128 20.3596C102.128 20.6026 102.088 20.8251 102.009 21.0272C101.93 21.2277 101.819 21.4001 101.674 21.5444C101.532 21.6887 101.359 21.8011 101.157 21.8816C100.957 21.9606 100.733 22.0001 100.487 22.0001H99.2478V18.7191H100.487C100.733 18.7191 100.957 18.7593 101.157 18.8398C101.359 18.9188 101.532 19.0305 101.674 19.1748C101.819 19.3191 101.93 19.4922 102.009 19.6943C102.088 19.8948 102.128 20.1165 102.128 20.3596ZM101.583 20.3596C101.583 20.1712 101.557 20.0019 101.506 19.8515C101.456 19.7011 101.383 19.5743 101.287 19.471C101.193 19.3677 101.078 19.2887 100.943 19.234C100.808 19.1778 100.656 19.1497 100.487 19.1497H99.7832V21.5695H100.487C100.656 21.5695 100.808 21.5421 100.943 21.4874C101.078 21.4327 101.193 21.3538 101.287 21.2505C101.383 21.1457 101.456 21.0188 101.506 20.87C101.557 20.7196 101.583 20.5495 101.583 20.3596Z" fill="black"/>
<path d="M142.273 21.5376C142.326 21.5376 142.368 21.5535 142.398 21.5854C142.429 21.6158 142.444 21.6553 142.444 21.7039V22.0001H140.225V21.8338C140.225 21.8003 140.231 21.7654 140.245 21.7289C140.259 21.6925 140.281 21.6591 140.311 21.6287L141.332 20.6057C141.419 20.5191 141.495 20.4363 141.562 20.3573C141.63 20.2783 141.688 20.1993 141.735 20.1203C141.784 20.0414 141.82 19.9616 141.845 19.8811C141.87 19.7991 141.883 19.7133 141.883 19.6236C141.883 19.537 141.87 19.4611 141.842 19.3958C141.817 19.3289 141.78 19.2743 141.733 19.2317C141.687 19.1877 141.632 19.155 141.567 19.1338C141.503 19.111 141.432 19.0996 141.355 19.0996C141.28 19.0996 141.211 19.1102 141.147 19.1315C141.085 19.1527 141.029 19.1824 140.979 19.2203C140.93 19.2583 140.889 19.3039 140.856 19.357C140.824 19.4087 140.8 19.4657 140.785 19.5279C140.762 19.5902 140.733 19.632 140.696 19.6533C140.661 19.6745 140.61 19.6791 140.541 19.6669L140.284 19.6214C140.307 19.4664 140.349 19.3305 140.411 19.2135C140.475 19.0965 140.555 18.9993 140.651 18.9219C140.746 18.8429 140.856 18.7836 140.979 18.7441C141.103 18.7031 141.238 18.6826 141.382 18.6826C141.528 18.6826 141.662 18.7046 141.783 18.7487C141.906 18.7912 142.012 18.8527 142.1 18.9333C142.189 19.0122 142.259 19.1087 142.309 19.2226C142.36 19.3365 142.385 19.4649 142.385 19.6077C142.385 19.7292 142.366 19.8416 142.33 19.9449C142.295 20.0482 142.247 20.1469 142.186 20.2411C142.126 20.3353 142.054 20.4272 141.972 20.5168C141.892 20.6049 141.807 20.6945 141.717 20.7857L140.924 21.5968C140.989 21.5786 141.055 21.5641 141.12 21.5535C141.187 21.5429 141.25 21.5376 141.309 21.5376H142.273Z" fill="black"/>
<path d="M145.192 20.3596C145.192 20.6467 145.161 20.895 145.099 21.1046C145.038 21.3143 144.954 21.4882 144.846 21.6264C144.738 21.7646 144.611 21.8672 144.465 21.934C144.319 22.0008 144.162 22.0343 143.994 22.0343C143.825 22.0343 143.668 22.0008 143.522 21.934C143.376 21.8672 143.249 21.7646 143.141 21.6264C143.035 21.4882 142.952 21.3143 142.891 21.1046C142.83 20.895 142.8 20.6467 142.8 20.3596C142.8 20.0725 142.83 19.8241 142.891 19.6145C142.952 19.4034 143.035 19.2295 143.141 19.0927C143.249 18.9545 143.376 18.852 143.522 18.7851C143.668 18.7168 143.825 18.6826 143.994 18.6826C144.162 18.6826 144.319 18.7168 144.465 18.7851C144.611 18.852 144.738 18.9545 144.846 19.0927C144.954 19.2295 145.038 19.4034 145.099 19.6145C145.161 19.8241 145.192 20.0725 145.192 20.3596ZM144.686 20.3596C144.686 20.1165 144.666 19.9145 144.627 19.7535C144.589 19.591 144.538 19.4611 144.474 19.3639C144.411 19.2667 144.337 19.1976 144.253 19.1565C144.17 19.1155 144.083 19.095 143.994 19.095C143.902 19.095 143.815 19.1155 143.732 19.1565C143.65 19.1976 143.577 19.2667 143.513 19.3639C143.449 19.4611 143.398 19.591 143.36 19.7535C143.322 19.9145 143.303 20.1165 143.303 20.3596C143.303 20.6026 143.322 20.8054 143.36 20.9679C143.398 21.1289 143.449 21.2581 143.513 21.3553C143.577 21.4525 143.65 21.5216 143.732 21.5626C143.815 21.6036 143.902 21.6241 143.994 21.6241C144.083 21.6241 144.17 21.6036 144.253 21.5626C144.337 21.5216 144.411 21.4525 144.474 21.3553C144.538 21.2581 144.589 21.1289 144.627 20.9679C144.666 20.8054 144.686 20.6026 144.686 20.3596Z" fill="black"/>
<path d="M147.56 21.5376C147.613 21.5376 147.655 21.5535 147.685 21.5854C147.715 21.6158 147.731 21.6553 147.731 21.7039V22.0001H145.511V21.8338C145.511 21.8003 145.518 21.7654 145.532 21.7289C145.546 21.6925 145.568 21.6591 145.598 21.6287L146.619 20.6057C146.705 20.5191 146.782 20.4363 146.849 20.3573C146.917 20.2783 146.975 20.1993 147.022 20.1203C147.071 20.0414 147.107 19.9616 147.131 19.8811C147.157 19.7991 147.17 19.7133 147.17 19.6236C147.17 19.537 147.156 19.4611 147.129 19.3958C147.103 19.3289 147.067 19.2743 147.02 19.2317C146.974 19.1877 146.919 19.155 146.853 19.1338C146.79 19.111 146.719 19.0996 146.642 19.0996C146.567 19.0996 146.498 19.1102 146.434 19.1315C146.372 19.1527 146.316 19.1824 146.266 19.2203C146.217 19.2583 146.176 19.3039 146.143 19.357C146.111 19.4087 146.087 19.4657 146.072 19.5279C146.049 19.5902 146.019 19.632 145.983 19.6533C145.948 19.6745 145.896 19.6791 145.828 19.6669L145.571 19.6214C145.593 19.4664 145.636 19.3305 145.698 19.2135C145.762 19.0965 145.842 18.9993 145.937 18.9219C146.033 18.8429 146.143 18.7836 146.266 18.7441C146.39 18.7031 146.525 18.6826 146.669 18.6826C146.815 18.6826 146.948 18.7046 147.07 18.7487C147.193 18.7912 147.298 18.8527 147.387 18.9333C147.476 19.0122 147.546 19.1087 147.596 19.2226C147.646 19.3365 147.671 19.4649 147.671 19.6077C147.671 19.7292 147.653 19.8416 147.617 19.9449C147.582 20.0482 147.534 20.1469 147.473 20.2411C147.412 20.3353 147.341 20.4272 147.259 20.5168C147.178 20.6049 147.093 20.6945 147.004 20.7857L146.211 21.5968C146.276 21.5786 146.342 21.5641 146.407 21.5535C146.474 21.5429 146.537 21.5376 146.596 21.5376H147.56Z" fill="black"/>
<path d="M148.838 19.9312C148.917 19.9145 148.993 19.9024 149.064 19.8948C149.137 19.8872 149.207 19.8834 149.274 19.8834C149.445 19.8834 149.596 19.9092 149.727 19.9608C149.859 20.011 149.969 20.0808 150.057 20.1705C150.147 20.2601 150.214 20.3657 150.258 20.4872C150.303 20.6072 150.326 20.7378 150.326 20.8791C150.326 21.0538 150.296 21.2125 150.235 21.3553C150.174 21.4981 150.09 21.6203 149.982 21.7221C149.874 21.8224 149.747 21.8998 149.599 21.9545C149.454 22.0092 149.296 22.0365 149.125 22.0365C149.025 22.0365 148.929 22.0267 148.838 22.0069C148.749 21.9872 148.664 21.9606 148.585 21.9272C148.506 21.8922 148.434 21.8527 148.367 21.8087C148.3 21.7631 148.24 21.716 148.187 21.6674L148.337 21.4578C148.369 21.4122 148.411 21.3895 148.465 21.3895C148.498 21.3895 148.535 21.4016 148.574 21.4259C148.614 21.4502 148.659 21.4768 148.711 21.5057C148.764 21.533 148.826 21.5588 148.898 21.5831C148.969 21.6074 149.054 21.6196 149.153 21.6196C149.261 21.6196 149.357 21.6021 149.442 21.5672C149.527 21.5322 149.599 21.4836 149.656 21.4214C149.716 21.3576 149.76 21.2816 149.791 21.1935C149.821 21.1054 149.836 21.0089 149.836 20.9041C149.836 20.8084 149.822 20.7226 149.793 20.6467C149.766 20.5707 149.724 20.5062 149.668 20.453C149.613 20.3998 149.544 20.3596 149.46 20.3322C149.377 20.3034 149.28 20.2889 149.171 20.2889C149.09 20.2889 149.008 20.2958 148.923 20.3095C148.839 20.3231 148.754 20.3444 148.667 20.3733L148.362 20.2867L148.631 18.7191H150.219V18.931C150.219 19.0008 150.197 19.0578 150.153 19.1019C150.109 19.1459 150.035 19.1679 149.932 19.1679H148.97L148.838 19.9312Z" fill="black"/>
<path d="M0 56.9836H2.28668C2.85835 56.9836 3.14418 56.6978 3.14418 56.1261V37.261C3.14418 36.9646 3.07008 36.7529 2.92187 36.6258C2.79483 36.4776 2.5831 36.4035 2.28668 36.4035H0V35.3872H17.7217L17.8488 43.3271H17.0548C17.0548 42.9036 16.9595 42.1837 16.769 41.1674C16.5996 40.1511 16.2502 39.2407 15.7209 38.4361C14.8316 37.081 13.5824 36.4035 11.9733 36.4035H6.92355C6.62713 36.4035 6.40481 36.4776 6.2566 36.6258C6.12956 36.7529 6.06605 36.9646 6.06605 37.261V45.8043H8.51152C9.59134 45.8043 10.3642 45.2538 10.83 44.1528C11.3169 43.0518 11.5604 41.8767 11.5604 40.6275H12.3862V51.9974H11.5604C11.5604 50.7482 11.3169 49.5731 10.83 48.4721C10.3642 47.3711 9.59134 46.8206 8.51152 46.8206H6.06605V56.1261C6.06605 56.6978 6.35188 56.9836 6.92355 56.9836H12.0051C12.6191 56.9836 13.2437 56.846 13.8789 56.5707C14.514 56.2955 15.054 55.872 15.4986 55.3004C15.922 54.7075 16.2714 53.9665 16.5466 53.0772C16.8219 52.1879 17.0125 51.3834 17.1183 50.6635C17.2242 49.9224 17.2877 49.446 17.3089 49.2343H18.1029L17.7217 57.9999H0V56.9836Z" fill="black"/>
<path d="M24.1508 39.5794C23.685 39.5794 23.2933 39.4206 22.9757 39.1031C22.6581 38.7855 22.4993 38.3938 22.4993 37.928C22.4993 37.441 22.6581 37.0493 22.9757 36.7529C23.2933 36.4353 23.685 36.2765 24.1508 36.2765C24.6378 36.2765 25.0295 36.4353 25.3259 36.7529C25.6435 37.0493 25.8023 37.441 25.8023 37.928C25.8023 38.3938 25.6435 38.7855 25.3259 39.1031C25.0295 39.4206 24.6378 39.5794 24.1508 39.5794ZM21.1654 57.2377H22.4993C22.7534 57.2377 22.9333 57.1847 23.0392 57.0789C23.1451 56.973 23.198 56.793 23.198 56.539V44.9785C23.198 44.7245 23.1451 44.5445 23.0392 44.4386C22.9333 44.3328 22.7534 44.2798 22.4993 44.2798H21.1654V43.5176H25.4847V56.539C25.4847 56.793 25.5376 56.973 25.6435 57.0789C25.7493 57.1847 25.9293 57.2377 26.1834 57.2377H27.5173V57.9999H21.1654V57.2377Z" fill="black"/>
<path d="M36.268 58.381C35.04 58.381 33.9496 58.0422 32.9968 57.3647C32.0652 56.6872 31.3347 55.7662 30.8054 54.6016C30.2972 53.4371 30.0431 52.1562 30.0431 50.7588C30.0431 49.3613 30.3078 48.0804 30.8371 46.9159C31.3665 45.7514 32.0969 44.8303 33.0285 44.1528C33.9813 43.4753 35.0611 43.1365 36.268 43.1365C37.2419 43.1365 38.0889 43.3482 38.8087 43.7717C39.5286 44.174 40.0791 44.7033 40.4602 45.3597C40.8413 45.9948 41.0319 46.6406 41.0319 47.297C41.0319 47.9533 40.8625 48.4721 40.5238 48.8532C40.185 49.2131 39.7721 49.3931 39.2851 49.3931C38.8617 49.3931 38.5017 49.2555 38.2053 48.9802C37.9301 48.705 37.7924 48.3768 37.7924 47.9957C37.7924 47.6146 37.8983 47.297 38.11 47.0429C38.3218 46.7888 38.5758 46.6194 38.8723 46.5348C39.211 46.4289 39.3804 46.2383 39.3804 45.9631C39.3804 45.709 39.264 45.4232 39.0311 45.1056C38.8193 44.788 38.4806 44.5127 38.0148 44.2798C37.549 44.0258 36.9667 43.8987 36.268 43.8987C34.9341 43.8987 34.0237 44.4704 33.5367 45.6137C33.0709 46.7571 32.838 48.4721 32.838 50.7588C32.838 53.0454 33.0709 54.7604 33.5367 55.9038C34.0025 57.0471 34.9129 57.6188 36.268 57.6188C37.5595 57.6188 38.5547 57.1636 39.2534 56.2531C39.9521 55.3427 40.3755 54.2735 40.5238 53.0454H41.286C41.2225 53.9135 41.0001 54.7604 40.619 55.5862C40.2379 56.3908 39.6768 57.0577 38.9358 57.587C38.1947 58.1164 37.3055 58.381 36.268 58.381Z" fill="black"/>
<path d="M43.2407 57.2377H45.0192C45.2733 57.2377 45.4532 57.1847 45.5591 57.0789C45.665 56.973 45.7179 56.793 45.7179 56.539V36.8481C45.7179 36.5941 45.665 36.4141 45.5591 36.3082C45.4532 36.2024 45.2733 36.1494 45.0192 36.1494H43.2407V35.3872H48.0046V46.1219L48.1316 46.1536C48.6186 45.1373 49.222 44.3857 49.9419 43.8987C50.6618 43.3906 51.4558 43.1365 52.3239 43.1365C53.8695 43.1365 54.9599 43.6129 55.5951 44.5657C56.2514 45.5185 56.5796 46.6618 56.5796 47.9957V56.539C56.5796 56.793 56.6326 56.973 56.7384 57.0789C56.8443 57.1847 57.0242 57.2377 57.2783 57.2377H58.6122V57.9999H52.2603V57.2377H53.5942C53.8483 57.2377 54.0283 57.1847 54.1341 57.0789C54.24 56.973 54.2929 56.793 54.2929 56.539V47.3923C54.2929 46.4607 54.1024 45.6667 53.7213 45.0103C53.3613 44.3539 52.7367 44.0258 51.8475 44.0258C51.1064 44.0258 50.4395 44.2904 49.8466 44.8197C49.275 45.3279 48.8197 46.0372 48.481 46.9476C48.1634 47.8369 48.0046 48.832 48.0046 49.933V56.539C48.0046 56.793 48.0575 56.973 48.1634 57.0789C48.2692 57.1847 48.4492 57.2377 48.7033 57.2377H50.0372V57.9999H43.2407V57.2377Z" fill="black"/>
<path d="M67.6937 58.381C65.7246 58.381 64.1366 57.7141 62.9298 56.3802C61.7441 55.0463 61.1512 53.1936 61.1512 50.8223C61.1512 49.4672 61.4159 48.2074 61.9452 47.0429C62.4745 45.8572 63.205 44.915 64.1366 44.2163C65.0894 43.4964 66.148 43.1365 67.3126 43.1365C68.6041 43.1365 69.6628 43.4859 70.4885 44.1846C71.3142 44.8833 71.9071 45.7725 72.267 46.8524C72.6481 47.911 72.8387 49.0014 72.8387 50.1236C72.8387 50.3565 72.7646 50.5153 72.6164 50.6C72.4682 50.6635 72.2141 50.6952 71.8542 50.6952H63.9461C63.9461 52.8125 64.2425 54.4958 64.8353 55.745C65.4493 56.9942 66.4445 57.6188 67.8207 57.6188C68.7947 57.6188 69.7051 57.2483 70.552 56.5072C71.4201 55.7662 71.9706 54.6122 72.2035 53.0454H72.9657C72.8387 54.5911 72.2988 55.872 71.346 56.8883C70.4144 57.8834 69.197 58.381 67.6937 58.381ZM70.1074 49.933C70.1074 48.2392 69.8851 46.81 69.4404 45.6455C68.9958 44.481 68.2653 43.8987 67.249 43.8987C66.1692 43.8987 65.3435 44.4916 64.7718 45.6773C64.2213 46.8418 63.9461 48.2604 63.9461 49.933H70.1074Z" fill="black"/>
<path d="M75.4417 57.2377H76.7756C77.0297 57.2377 77.2097 57.1847 77.3155 57.0789C77.4214 56.973 77.4743 56.793 77.4743 56.539V44.9785C77.4743 44.7245 77.4214 44.5445 77.3155 44.4386C77.2097 44.3328 77.0297 44.2798 76.7756 44.2798H75.4417V43.5176H79.761V46.1219L79.888 46.1536C80.375 45.1373 80.9784 44.3857 81.6983 43.8987C82.4182 43.3906 83.2122 43.1365 84.0803 43.1365C85.6259 43.1365 86.7163 43.6129 87.3515 44.5657C88.0079 45.5185 88.336 46.6618 88.336 47.9957V56.539C88.336 56.793 88.389 56.973 88.4948 57.0789C88.6007 57.1847 88.7807 57.2377 89.0347 57.2377H90.3686V57.9999H84.0168V57.2377H85.3507C85.6047 57.2377 85.7847 57.1847 85.8906 57.0789C85.9964 56.973 86.0494 56.793 86.0494 56.539V47.3923C86.0494 46.4607 85.8588 45.6667 85.4777 45.0103C85.1178 44.3539 84.4932 44.0258 83.6039 44.0258C82.8628 44.0258 82.1959 44.2904 81.6031 44.8197C81.0314 45.3279 80.5762 46.0372 80.2374 46.9476C79.9198 47.8369 79.761 48.832 79.761 49.933V56.539C79.761 56.793 79.8139 56.973 79.9198 57.0789C80.0257 57.1847 80.2056 57.2377 80.4597 57.2377H81.7936V57.9999H75.4417V57.2377Z" fill="black"/>
<path d="M93.2917 52.0927H93.8634L95.0385 54.6016C96.1819 56.6131 97.664 57.6188 99.4848 57.6188C100.459 57.6188 101.179 57.3859 101.644 56.9201C102.131 56.4331 102.375 55.7767 102.375 54.951C102.375 54.464 102.184 54.03 101.803 53.6489C101.443 53.2466 100.956 52.929 100.342 52.6961L96.7218 51.2351C95.5784 50.7693 94.6786 50.2083 94.0222 49.5519C93.3658 48.8955 93.0377 48.0592 93.0377 47.0429C93.0377 45.7514 93.44 44.7774 94.2445 44.121C95.0491 43.4647 96.0654 43.1365 97.2934 43.1365C97.9074 43.1365 98.4791 43.2424 99.0084 43.4541C99.5589 43.6447 100.014 43.8776 100.374 44.1528C100.84 44.4916 101.189 44.661 101.422 44.661C101.697 44.661 101.867 44.4704 101.93 44.0893L101.994 43.4541H102.565V48.2815H101.994L101.549 47.1699C101.062 45.9631 100.416 45.1162 99.6119 44.6292C98.8285 44.1422 98.0451 43.8987 97.2617 43.8987C96.4783 43.8987 95.8325 44.0999 95.3243 44.5022C94.8162 44.8833 94.5621 45.4232 94.5621 46.1219C94.5621 46.7359 94.8056 47.244 95.2926 47.6463C95.8007 48.0274 96.4889 48.398 97.3569 48.7579L100.787 50.1871C101.803 50.6105 102.565 51.1293 103.074 51.7433C103.582 52.3361 103.836 53.1725 103.836 54.2523C103.836 55.6709 103.434 56.7189 102.629 57.3965C101.824 58.0528 100.766 58.381 99.4531 58.381C98.6697 58.381 98.0345 58.2751 97.5475 58.0634C97.0605 57.8517 96.5841 57.5659 96.1183 57.2059C95.9278 57.0577 95.7372 56.9307 95.5467 56.8248C95.3561 56.7189 95.1867 56.666 95.0385 56.666C94.5304 56.666 94.181 57.0259 93.9904 57.7458L93.8634 58.381H93.2917V52.0927Z" fill="black"/>
<path d="M113.224 58.381C111.255 58.381 109.667 57.7141 108.46 56.3802C107.274 55.0463 106.681 53.1936 106.681 50.8223C106.681 49.4672 106.946 48.2074 107.475 47.0429C108.005 45.8572 108.735 44.915 109.667 44.2163C110.619 43.4964 111.678 43.1365 112.843 43.1365C114.134 43.1365 115.193 43.4859 116.019 44.1846C116.844 44.8833 117.437 45.7725 117.797 46.8524C118.178 47.911 118.369 49.0014 118.369 50.1236C118.369 50.3565 118.295 50.5153 118.146 50.6C117.998 50.6635 117.744 50.6952 117.384 50.6952H109.476C109.476 52.8125 109.773 54.4958 110.365 55.745C110.979 56.9942 111.975 57.6188 113.351 57.6188C114.325 57.6188 115.235 57.2483 116.082 56.5072C116.95 55.7662 117.501 54.6122 117.734 53.0454H118.496C118.369 54.5911 117.829 55.872 116.876 56.8883C115.944 57.8834 114.727 58.381 113.224 58.381ZM115.637 49.933C115.637 48.2392 115.415 46.81 114.971 45.6455C114.526 44.481 113.795 43.8987 112.779 43.8987C111.699 43.8987 110.874 44.4916 110.302 45.6773C109.751 46.8418 109.476 48.2604 109.476 49.933H115.637Z" fill="black"/>
<path d="M127.832 58.381C125.863 58.381 124.275 57.7141 123.068 56.3802C121.882 55.0463 121.289 53.1936 121.289 50.8223C121.289 49.4672 121.554 48.2074 122.083 47.0429C122.613 45.8572 123.343 44.915 124.275 44.2163C125.228 43.4964 126.286 43.1365 127.451 43.1365C128.742 43.1365 129.801 43.4859 130.627 44.1846C131.452 44.8833 132.045 45.7725 132.405 46.8524C132.786 47.911 132.977 49.0014 132.977 50.1236C132.977 50.3565 132.903 50.5153 132.755 50.6C132.606 50.6635 132.352 50.6952 131.992 50.6952H124.084C124.084 52.8125 124.381 54.4958 124.973 55.745C125.587 56.9942 126.583 57.6188 127.959 57.6188C128.933 57.6188 129.843 57.2483 130.69 56.5072C131.558 55.7662 132.109 54.6122 132.342 53.0454H133.104C132.977 54.5911 132.437 55.872 131.484 56.8883C130.553 57.8834 129.335 58.381 127.832 58.381ZM130.246 49.933C130.246 48.2392 130.023 46.81 129.579 45.6455C129.134 44.481 128.404 43.8987 127.387 43.8987C126.307 43.8987 125.482 44.4916 124.91 45.6773C124.359 46.8418 124.084 48.2604 124.084 49.933H130.246Z" fill="black"/>
<path d="M135.58 57.2377H136.914C137.168 57.2377 137.348 57.1847 137.454 57.0789C137.56 56.973 137.612 56.793 137.612 56.539V44.9785C137.612 44.7245 137.56 44.5445 137.454 44.4386C137.348 44.3328 137.168 44.2798 136.914 44.2798H135.58V43.5176H139.899V46.6936L140.026 46.7253C140.471 45.6243 141.042 44.7562 141.741 44.121C142.461 43.4647 143.223 43.1365 144.028 43.1365C144.832 43.1365 145.489 43.3694 145.997 43.8352C146.505 44.301 146.759 44.9362 146.759 45.7408C146.759 46.2066 146.59 46.6618 146.251 47.1064C145.933 47.5511 145.521 47.7734 145.012 47.7734C144.61 47.7734 144.271 47.6675 143.996 47.4558C143.721 47.244 143.583 46.9476 143.583 46.5665C143.583 46.1219 143.795 45.7408 144.218 45.4232C144.409 45.2961 144.547 45.1797 144.631 45.0738C144.737 44.968 144.79 44.8303 144.79 44.661C144.79 44.4704 144.695 44.3222 144.504 44.2163C144.335 44.0893 144.091 44.0258 143.774 44.0258C143.117 44.0258 142.482 44.3434 141.868 44.9785C141.275 45.6137 140.799 46.4395 140.439 47.4558C140.079 48.4721 139.899 49.5307 139.899 50.6317V56.539C139.899 56.793 139.952 56.973 140.058 57.0789C140.164 57.1847 140.344 57.2377 140.598 57.2377H141.932V57.9999H135.58V57.2377Z" fill="black"/>
<path d="M149.305 50.8858V49.1073H157.245V50.8858H149.305Z" fill="black"/>
<path d="M161.123 56.9836H163.41C163.981 56.9836 164.267 56.6978 164.267 56.1261V37.261C164.267 36.6893 163.981 36.4035 163.41 36.4035H161.123V35.3872H170.333V36.4035H168.047C167.475 36.4035 167.189 36.6893 167.189 37.261V45.6137H176.781V37.261C176.781 36.6893 176.495 36.4035 175.923 36.4035H173.636V35.3872H182.847V36.4035H180.56C179.988 36.4035 179.702 36.6893 179.702 37.261V56.1261C179.702 56.6978 179.988 56.9836 180.56 56.9836H182.847V57.9999H173.636V56.9836H175.923C176.495 56.9836 176.781 56.6978 176.781 56.1261V46.63H167.189V56.1261C167.189 56.6978 167.475 56.9836 168.047 56.9836H170.333V57.9999H161.123V56.9836Z" fill="black"/>
<path d="M192.059 58.381C190.895 58.381 189.826 58.0422 188.852 57.3647C187.878 56.666 187.105 55.7344 186.533 54.5699C185.983 53.4054 185.708 52.135 185.708 50.7588C185.708 49.3825 185.983 48.1121 186.533 46.9476C187.105 45.7831 187.878 44.8621 188.852 44.1846C189.826 43.4859 190.895 43.1365 192.059 43.1365C193.224 43.1365 194.293 43.4859 195.267 44.1846C196.241 44.8621 197.003 45.7831 197.554 46.9476C198.126 48.1121 198.411 49.3825 198.411 50.7588C198.411 52.135 198.126 53.4054 197.554 54.5699C197.003 55.7344 196.241 56.666 195.267 57.3647C194.293 58.0422 193.224 58.381 192.059 58.381ZM192.059 57.6188C193.33 57.6188 194.24 57.0259 194.791 55.8403C195.341 54.6334 195.617 52.9396 195.617 50.7588C195.617 48.5779 195.341 46.8947 194.791 45.709C194.24 44.5022 193.33 43.8987 192.059 43.8987C190.789 43.8987 189.879 44.5022 189.328 45.709C188.778 46.8947 188.502 48.5779 188.502 50.7588C188.502 52.9396 188.778 54.6334 189.328 55.8403C189.879 57.0259 190.789 57.6188 192.059 57.6188Z" fill="black"/>
<path d="M207.243 58.381C205.698 58.381 204.597 57.9046 203.941 56.9518C203.305 55.9991 202.988 54.8557 202.988 53.5218V44.9785C202.988 44.7245 202.935 44.5445 202.829 44.4386C202.723 44.3328 202.543 44.2798 202.289 44.2798H200.955V43.5176H205.274V54.1253C205.274 55.0569 205.454 55.8508 205.814 56.5072C206.195 57.1636 206.831 57.4917 207.72 57.4917C208.461 57.4917 209.117 57.2377 209.689 56.7295C210.282 56.2002 210.737 55.4909 211.055 54.6016C211.393 53.6912 211.563 52.6855 211.563 51.5845V44.9785C211.563 44.7245 211.51 44.5445 211.404 44.4386C211.298 44.3328 211.118 44.2798 210.864 44.2798H209.53V43.5176H213.849V56.539C213.849 56.793 213.902 56.973 214.008 57.0789C214.114 57.1847 214.294 57.2377 214.548 57.2377H215.882V57.9999H211.563V55.3956L211.436 55.3639C210.949 56.3802 210.345 57.1424 209.625 57.6505C208.906 58.1375 208.112 58.381 207.243 58.381Z" fill="black"/>
<path d="M218.81 52.0927H219.381L220.556 54.6016C221.7 56.6131 223.182 57.6188 225.003 57.6188C225.977 57.6188 226.697 57.3859 227.162 56.9201C227.649 56.4331 227.893 55.7767 227.893 54.951C227.893 54.464 227.702 54.03 227.321 53.6489C226.961 53.2466 226.474 52.929 225.86 52.6961L222.24 51.2351C221.096 50.7693 220.196 50.2083 219.54 49.5519C218.884 48.8955 218.556 48.0592 218.556 47.0429C218.556 45.7514 218.958 44.7774 219.762 44.121C220.567 43.4647 221.583 43.1365 222.811 43.1365C223.425 43.1365 223.997 43.2424 224.526 43.4541C225.077 43.6447 225.532 43.8776 225.892 44.1528C226.358 44.4916 226.707 44.661 226.94 44.661C227.215 44.661 227.385 44.4704 227.448 44.0893L227.512 43.4541H228.083V48.2815H227.512L227.067 47.1699C226.58 45.9631 225.934 45.1162 225.13 44.6292C224.346 44.1422 223.563 43.8987 222.78 43.8987C221.996 43.8987 221.35 44.0999 220.842 44.5022C220.334 44.8833 220.08 45.4232 220.08 46.1219C220.08 46.7359 220.323 47.244 220.81 47.6463C221.319 48.0274 222.007 48.398 222.875 48.7579L226.305 50.1871C227.321 50.6105 228.083 51.1293 228.592 51.7433C229.1 52.3361 229.354 53.1725 229.354 54.2523C229.354 55.6709 228.951 56.7189 228.147 57.3965C227.342 58.0528 226.284 58.381 224.971 58.381C224.188 58.381 223.552 58.2751 223.065 58.0634C222.578 57.8517 222.102 57.5659 221.636 57.2059C221.446 57.0577 221.255 56.9307 221.065 56.8248C220.874 56.7189 220.705 56.666 220.556 56.666C220.048 56.666 219.699 57.0259 219.508 57.7458L219.381 58.381H218.81V52.0927Z" fill="black"/>
<path d="M238.742 58.381C236.773 58.381 235.185 57.7141 233.978 56.3802C232.792 55.0463 232.199 53.1936 232.199 50.8223C232.199 49.4672 232.464 48.2074 232.993 47.0429C233.522 45.8572 234.253 44.915 235.185 44.2163C236.137 43.4964 237.196 43.1365 238.36 43.1365C239.652 43.1365 240.711 43.4859 241.536 44.1846C242.362 44.8833 242.955 45.7725 243.315 46.8524C243.696 47.911 243.887 49.0014 243.887 50.1236C243.887 50.3565 243.813 50.5153 243.664 50.6C243.516 50.6635 243.262 50.6952 242.902 50.6952H234.994C234.994 52.8125 235.29 54.4958 235.883 55.745C236.497 56.9942 237.492 57.6188 238.869 57.6188C239.843 57.6188 240.753 57.2483 241.6 56.5072C242.468 55.7662 243.019 54.6122 243.251 53.0454H244.014C243.887 54.5911 243.347 55.872 242.394 56.8883C241.462 57.8834 240.245 58.381 238.742 58.381ZM241.155 49.933C241.155 48.2392 240.933 46.81 240.488 45.6455C240.044 44.481 239.313 43.8987 238.297 43.8987C237.217 43.8987 236.391 44.4916 235.82 45.6773C235.269 46.8418 234.994 48.2604 234.994 49.933H241.155Z" fill="black"/>
<path d="M134.757 18.8187C135.186 18.3889 135.527 17.8787 135.76 17.3171C135.992 16.7556 136.112 16.1537 136.112 15.5459C136.112 14.3184 135.625 13.1411 134.757 12.2731C133.889 11.4051 132.711 10.9175 131.484 10.9175C130.876 10.9175 130.274 11.0372 129.712 11.2698C129.151 11.5024 128.641 11.8433 128.211 12.2731L134.757 18.8187Z" fill="black"/>
<rect x="128.213" y="12.2725" width="9.25685" height="5.55411" transform="rotate(45 128.213 12.2725)" fill="black"/>
<line x1="128.211" y1="18.8182" x2="117.302" y2="29.7278" stroke="black" stroke-width="1.02857"/>
<path d="M115.849 12.2728C115.419 11.843 114.909 11.5021 114.347 11.2695C113.786 11.0369 113.184 10.9172 112.576 10.9172C111.349 10.9172 110.171 11.4048 109.303 12.2728C108.435 13.1408 107.948 14.318 107.948 15.5456C107.948 16.1534 108.067 16.7553 108.3 17.3168C108.533 17.8783 108.874 18.3886 109.303 18.8184L115.849 12.2728Z" fill="black"/>
<rect x="109.303" y="18.8174" width="9.25685" height="5.55411" transform="rotate(-45 109.303 18.8174)" fill="black"/>
<line x1="115.85" y1="18.8185" x2="126.76" y2="29.7281" stroke="black" stroke-width="1.02857"/>
<path d="M120.731 0C122.081 3 118.031 4.5 118.031 7.5C118.031 10.5 120.731 12 120.731 12C119.408 9.03 123.431 7.5 123.431 4.5C123.431 1.5 120.731 0 120.731 0ZM124.781 4.5C126.131 7.5 122.081 9 122.081 12C122.621 12 127.031 11.25 127.031 9C127.031 6 124.781 4.5 124.781 4.5Z" fill="#C03728"/>
</svg>
